<svg xmlns="http://www.w3.org/2000/svg" xmlns:xlink="http://www.w3.org/1999/xlink" width="500" zoomAndPan="magnify" viewBox="0 0 375 374.999991" height="500" preserveAspectRatio="xMidYMid meet" version="1.0"><defs><g/><clipPath id="5ad27d2783"><path d="M 51.003906 112.351562 L 323.914062 112.351562 L 323.914062 262.355469 L 51.003906 262.355469 Z M 51.003906 112.351562 " clip-rule="nonzero"/></clipPath><clipPath id="4eb25aec6d"><path d="M 57.804688 116.097656 L 317.164062 116.097656 L 317.164062 259.324219 L 57.804688 259.324219 Z M 57.804688 116.097656 " clip-rule="nonzero"/></clipPath><clipPath id="febb959ada"><path d="M 59.273438 116.90625 L 315.730469 116.90625 L 315.730469 258.195312 L 59.273438 258.195312 Z M 59.273438 116.90625 " clip-rule="nonzero"/></clipPath></defs><g clip-path="url(#5ad27d2783)"><path fill="#dcd7c9" d="M 91.816406 126.304688 L 92.417969 126.304688 C 93.90625 118.394531 100.902344 112.355469 109.242188 112.355469 L 265.675781 112.355469 C 274.015625 112.355469 281.011719 118.394531 282.5 126.304688 L 283.101562 126.304688 C 290.765625 126.304688 297.035156 132.566406 297.035156 140.214844 L 297.035156 143.867188 C 312.953125 151.882812 323.867188 168.347656 323.867188 187.359375 C 323.867188 206.375 312.953125 222.839844 297.035156 230.855469 L 297.035156 234.503906 C 297.035156 242.15625 290.765625 248.417969 283.101562 248.417969 L 282.5 248.417969 C 281.011719 256.328125 274.015625 262.363281 265.675781 262.363281 L 109.242188 262.363281 C 100.902344 262.363281 93.90625 256.328125 92.417969 248.417969 L 91.816406 248.417969 C 84.152344 248.417969 77.882812 242.15625 77.882812 234.503906 L 77.882812 230.855469 C 61.964844 222.839844 51.050781 206.375 51.050781 187.359375 C 51.050781 168.347656 61.964844 151.882812 77.882812 143.867188 L 77.882812 140.214844 C 77.882812 132.566406 84.152344 126.304688 91.816406 126.304688 " fill-opacity="1" fill-rule="evenodd"/></g><g clip-path="url(#4eb25aec6d)"><path fill="#ffffff" d="M 96.589844 129.417969 L 97.164062 129.417969 C 98.574219 121.863281 105.222656 116.101562 113.152344 116.101562 L 261.816406 116.101562 C 269.742188 116.101562 276.390625 121.863281 277.804688 129.417969 L 278.378906 129.417969 C 285.660156 129.417969 291.621094 135.394531 291.621094 142.703125 L 291.621094 146.1875 C 306.746094 153.84375 317.121094 169.5625 317.121094 187.71875 C 317.121094 205.871094 306.746094 221.59375 291.621094 229.246094 L 291.621094 232.734375 C 291.621094 240.039062 285.660156 246.015625 278.378906 246.015625 L 277.804688 246.015625 C 276.390625 253.570312 269.742188 259.335938 261.816406 259.335938 L 113.152344 259.335938 C 105.222656 259.335938 98.574219 253.570312 97.164062 246.015625 L 96.589844 246.015625 C 89.304688 246.015625 83.347656 240.039062 83.347656 232.734375 L 83.347656 229.246094 C 68.222656 221.59375 57.847656 205.871094 57.847656 187.71875 C 57.847656 169.5625 68.222656 153.84375 83.347656 146.1875 L 83.347656 142.703125 C 83.347656 135.394531 89.304688 129.417969 96.589844 129.417969 " fill-opacity="1" fill-rule="evenodd"/></g><g clip-path="url(#febb959ada)"><path fill="#dcd7c9" d="M 97.621094 130.046875 L 98.1875 130.046875 C 99.585938 122.59375 106.160156 116.910156 113.996094 116.910156 L 261.003906 116.910156 C 268.84375 116.910156 275.417969 122.59375 276.816406 130.046875 L 277.382812 130.046875 C 284.582031 130.046875 290.476562 135.945312 290.476562 143.152344 L 290.476562 146.589844 C 305.433594 154.140625 315.691406 169.648438 315.691406 187.558594 C 315.691406 205.46875 305.433594 220.976562 290.476562 228.527344 L 290.476562 231.964844 C 290.476562 239.171875 284.582031 245.066406 277.382812 245.066406 L 276.816406 245.066406 C 275.417969 252.523438 268.84375 258.207031 261.003906 258.207031 L 113.996094 258.207031 C 106.160156 258.207031 99.585938 252.523438 98.1875 245.066406 L 97.621094 245.066406 C 90.417969 245.066406 84.527344 239.171875 84.527344 231.964844 L 84.527344 228.527344 C 69.570312 220.976562 59.3125 205.46875 59.3125 187.558594 C 59.3125 169.648438 69.570312 154.140625 84.527344 146.589844 L 84.527344 143.152344 C 84.527344 135.945312 90.417969 130.046875 97.621094 130.046875 " fill-opacity="1" fill-rule="evenodd"/></g><g fill="#ffffff" fill-opacity="1"><g transform="translate(74.706679, 192.917786)"><g><path d="M 17.984375 -22.5625 C 18.941406 -22.5625 19.742188 -22.59375 20.390625 -22.65625 L 20.390625 -22.015625 C 19.316406 -21.753906 18.472656 -20.828125 17.859375 -19.234375 L 10.34375 0.15625 L 9.828125 0.15625 L 2.015625 -19.96875 C 1.503906 -21.289062 0.769531 -21.972656 -0.1875 -22.015625 L -0.1875 -22.65625 C 0.664062 -22.59375 1.804688 -22.5625 3.234375 -22.5625 C 5.066406 -22.5625 6.429688 -22.59375 7.328125 -22.65625 L 7.328125 -22.015625 C 6.515625 -21.972656 5.929688 -21.867188 5.578125 -21.703125 C 5.234375 -21.546875 5.0625 -21.253906 5.0625 -20.828125 C 5.0625 -20.460938 5.1875 -19.960938 5.4375 -19.328125 L 11.234375 -3.9375 L 16.453125 -17.46875 C 16.878906 -18.625 17.09375 -19.5 17.09375 -20.09375 C 17.09375 -20.757812 16.863281 -21.238281 16.40625 -21.53125 C 15.945312 -21.832031 15.242188 -21.992188 14.296875 -22.015625 L 14.296875 -22.65625 C 15.515625 -22.59375 16.742188 -22.5625 17.984375 -22.5625 Z M 17.984375 -22.5625 "/></g></g></g><g fill="#ffffff" fill-opacity="1"><g transform="translate(94.861726, 192.917786)"><g><path d="M 17.734375 -4.09375 C 17.734375 -2.875 17.804688 -1.507812 17.953125 0 C 16.503906 -0.0625 14.0625 -0.09375 10.625 -0.09375 C 6.53125 -0.09375 3.4375 -0.0625 1.34375 0 L 1.34375 -0.640625 C 2.113281 -0.679688 2.671875 -0.765625 3.015625 -0.890625 C 3.367188 -1.023438 3.609375 -1.269531 3.734375 -1.625 C 3.867188 -1.988281 3.9375 -2.578125 3.9375 -3.390625 L 3.9375 -19.265625 C 3.9375 -20.078125 3.867188 -20.660156 3.734375 -21.015625 C 3.609375 -21.378906 3.367188 -21.625 3.015625 -21.75 C 2.671875 -21.882812 2.113281 -21.972656 1.34375 -22.015625 L 1.34375 -22.65625 C 3.4375 -22.59375 6.53125 -22.5625 10.625 -22.5625 C 13.757812 -22.5625 15.988281 -22.59375 17.3125 -22.65625 C 17.164062 -21.25 17.09375 -19.988281 17.09375 -18.875 C 17.09375 -18.039062 17.125 -17.378906 17.1875 -16.890625 L 16.453125 -16.890625 C 16.296875 -18.273438 16.097656 -19.300781 15.859375 -19.96875 C 15.628906 -20.644531 15.238281 -21.140625 14.6875 -21.453125 C 14.132812 -21.765625 13.289062 -21.921875 12.15625 -21.921875 L 9.5 -21.921875 C 8.738281 -21.921875 8.179688 -21.859375 7.828125 -21.734375 C 7.472656 -21.617188 7.226562 -21.378906 7.09375 -21.015625 C 6.96875 -20.660156 6.90625 -20.078125 6.90625 -19.265625 L 6.90625 -11.71875 L 9.03125 -11.71875 C 9.769531 -11.71875 10.34375 -11.890625 10.75 -12.234375 C 11.15625 -12.585938 11.425781 -13.003906 11.5625 -13.484375 C 11.707031 -13.960938 11.820312 -14.566406 11.90625 -15.296875 L 12 -15.9375 L 12.734375 -15.9375 C 12.671875 -15.039062 12.640625 -14.035156 12.640625 -12.921875 L 12.640625 -11.390625 C 12.640625 -10.304688 12.703125 -8.789062 12.828125 -6.84375 L 12.09375 -6.84375 C 12.070312 -7 12.007812 -7.519531 11.90625 -8.40625 C 11.800781 -9.289062 11.503906 -9.957031 11.015625 -10.40625 C 10.535156 -10.851562 9.875 -11.078125 9.03125 -11.078125 L 6.90625 -11.078125 L 6.90625 -3.390625 C 6.90625 -2.578125 6.96875 -1.988281 7.09375 -1.625 C 7.226562 -1.269531 7.472656 -1.03125 7.828125 -0.90625 C 8.179688 -0.789062 8.738281 -0.734375 9.5 -0.734375 L 11.84375 -0.734375 C 13.164062 -0.734375 14.171875 -0.910156 14.859375 -1.265625 C 15.554688 -1.617188 16.0625 -2.179688 16.375 -2.953125 C 16.695312 -3.734375 16.9375 -4.882812 17.09375 -6.40625 L 17.828125 -6.40625 C 17.765625 -5.820312 17.734375 -5.050781 17.734375 -4.09375 Z M 17.734375 -4.09375 "/></g></g></g><g fill="#ffffff" fill-opacity="1"><g transform="translate(114.344936, 192.917786)"><g><path d="M 9.5 -22.015625 C 8.738281 -21.972656 8.179688 -21.882812 7.828125 -21.75 C 7.472656 -21.625 7.226562 -21.378906 7.09375 -21.015625 C 6.96875 -20.660156 6.90625 -20.078125 6.90625 -19.265625 L 6.90625 -3.390625 C 6.90625 -2.578125 6.96875 -1.988281 7.09375 -1.625 C 7.226562 -1.269531 7.472656 -1.03125 7.828125 -0.90625 C 8.179688 -0.789062 8.738281 -0.734375 9.5 -0.734375 L 11.84375 -0.734375 C 13.164062 -0.734375 14.171875 -0.921875 14.859375 -1.296875 C 15.554688 -1.671875 16.0625 -2.273438 16.375 -3.109375 C 16.695312 -3.941406 16.9375 -5.144531 17.09375 -6.71875 L 17.828125 -6.71875 C 17.765625 -6.0625 17.734375 -5.1875 17.734375 -4.09375 C 17.734375 -2.875 17.804688 -1.507812 17.953125 0 C 16.503906 -0.0625 14.0625 -0.09375 10.625 -0.09375 C 6.53125 -0.09375 3.4375 -0.0625 1.34375 0 L 1.34375 -0.640625 C 2.113281 -0.679688 2.671875 -0.765625 3.015625 -0.890625 C 3.367188 -1.023438 3.609375 -1.269531 3.734375 -1.625 C 3.867188 -1.988281 3.9375 -2.578125 3.9375 -3.390625 L 3.9375 -19.265625 C 3.9375 -20.078125 3.867188 -20.660156 3.734375 -21.015625 C 3.609375 -21.378906 3.367188 -21.625 3.015625 -21.75 C 2.671875 -21.882812 2.113281 -21.972656 1.34375 -22.015625 L 1.34375 -22.65625 C 2.238281 -22.59375 3.601562 -22.5625 5.4375 -22.5625 C 7.144531 -22.5625 8.5 -22.59375 9.5 -22.65625 Z M 9.5 -22.015625 "/></g></g></g><g fill="#ffffff" fill-opacity="1"><g transform="translate(133.156309, 192.917786)"><g><path d="M 17.984375 -22.5625 C 18.941406 -22.5625 19.742188 -22.59375 20.390625 -22.65625 L 20.390625 -22.015625 C 19.316406 -21.753906 18.472656 -20.828125 17.859375 -19.234375 L 10.34375 0.15625 L 9.828125 0.15625 L 2.015625 -19.96875 C 1.503906 -21.289062 0.769531 -21.972656 -0.1875 -22.015625 L -0.1875 -22.65625 C 0.664062 -22.59375 1.804688 -22.5625 3.234375 -22.5625 C 5.066406 -22.5625 6.429688 -22.59375 7.328125 -22.65625 L 7.328125 -22.015625 C 6.515625 -21.972656 5.929688 -21.867188 5.578125 -21.703125 C 5.234375 -21.546875 5.0625 -21.253906 5.0625 -20.828125 C 5.0625 -20.460938 5.1875 -19.960938 5.4375 -19.328125 L 11.234375 -3.9375 L 16.453125 -17.46875 C 16.878906 -18.625 17.09375 -19.5 17.09375 -20.09375 C 17.09375 -20.757812 16.863281 -21.238281 16.40625 -21.53125 C 15.945312 -21.832031 15.242188 -21.992188 14.296875 -22.015625 L 14.296875 -22.65625 C 15.515625 -22.59375 16.742188 -22.5625 17.984375 -22.5625 Z M 17.984375 -22.5625 "/></g></g></g><g fill="#ffffff" fill-opacity="1"><g transform="translate(153.311357, 192.917786)"><g><path d="M 17.734375 -4.09375 C 17.734375 -2.875 17.804688 -1.507812 17.953125 0 C 16.503906 -0.0625 14.0625 -0.09375 10.625 -0.09375 C 6.53125 -0.09375 3.4375 -0.0625 1.34375 0 L 1.34375 -0.640625 C 2.113281 -0.679688 2.671875 -0.765625 3.015625 -0.890625 C 3.367188 -1.023438 3.609375 -1.269531 3.734375 -1.625 C 3.867188 -1.988281 3.9375 -2.578125 3.9375 -3.390625 L 3.9375 -19.265625 C 3.9375 -20.078125 3.867188 -20.660156 3.734375 -21.015625 C 3.609375 -21.378906 3.367188 -21.625 3.015625 -21.75 C 2.671875 -21.882812 2.113281 -21.972656 1.34375 -22.015625 L 1.34375 -22.65625 C 3.4375 -22.59375 6.53125 -22.5625 10.625 -22.5625 C 13.757812 -22.5625 15.988281 -22.59375 17.3125 -22.65625 C 17.164062 -21.25 17.09375 -19.988281 17.09375 -18.875 C 17.09375 -18.039062 17.125 -17.378906 17.1875 -16.890625 L 16.453125 -16.890625 C 16.296875 -18.273438 16.097656 -19.300781 15.859375 -19.96875 C 15.628906 -20.644531 15.238281 -21.140625 14.6875 -21.453125 C 14.132812 -21.765625 13.289062 -21.921875 12.15625 -21.921875 L 9.5 -21.921875 C 8.738281 -21.921875 8.179688 -21.859375 7.828125 -21.734375 C 7.472656 -21.617188 7.226562 -21.378906 7.09375 -21.015625 C 6.96875 -20.660156 6.90625 -20.078125 6.90625 -19.265625 L 6.90625 -11.71875 L 9.03125 -11.71875 C 9.769531 -11.71875 10.34375 -11.890625 10.75 -12.234375 C 11.15625 -12.585938 11.425781 -13.003906 11.5625 -13.484375 C 11.707031 -13.960938 11.820312 -14.566406 11.90625 -15.296875 L 12 -15.9375 L 12.734375 -15.9375 C 12.671875 -15.039062 12.640625 -14.035156 12.640625 -12.921875 L 12.640625 -11.390625 C 12.640625 -10.304688 12.703125 -8.789062 12.828125 -6.84375 L 12.09375 -6.84375 C 12.070312 -7 12.007812 -7.519531 11.90625 -8.40625 C 11.800781 -9.289062 11.503906 -9.957031 11.015625 -10.40625 C 10.535156 -10.851562 9.875 -11.078125 9.03125 -11.078125 L 6.90625 -11.078125 L 6.90625 -3.390625 C 6.90625 -2.578125 6.96875 -1.988281 7.09375 -1.625 C 7.226562 -1.269531 7.472656 -1.03125 7.828125 -0.90625 C 8.179688 -0.789062 8.738281 -0.734375 9.5 -0.734375 L 11.84375 -0.734375 C 13.164062 -0.734375 14.171875 -0.910156 14.859375 -1.265625 C 15.554688 -1.617188 16.0625 -2.179688 16.375 -2.953125 C 16.695312 -3.734375 16.9375 -4.882812 17.09375 -6.40625 L 17.828125 -6.40625 C 17.765625 -5.820312 17.734375 -5.050781 17.734375 -4.09375 Z M 17.734375 -4.09375 "/></g></g></g><g fill="#ffffff" fill-opacity="1"><g transform="translate(172.794567, 192.917786)"><g><path d="M 18.9375 -22.65625 C 18.789062 -21.144531 18.71875 -19.78125 18.71875 -18.5625 C 18.71875 -17.488281 18.75 -16.613281 18.8125 -15.9375 L 18.078125 -15.9375 C 17.910156 -17.582031 17.695312 -18.800781 17.4375 -19.59375 C 17.1875 -20.394531 16.738281 -20.984375 16.09375 -21.359375 C 15.457031 -21.734375 14.476562 -21.921875 13.15625 -21.921875 L 11.421875 -21.921875 L 11.421875 -3.71875 C 11.421875 -2.820312 11.503906 -2.171875 11.671875 -1.765625 C 11.847656 -1.359375 12.148438 -1.078125 12.578125 -0.921875 C 13.003906 -0.773438 13.695312 -0.679688 14.65625 -0.640625 L 14.65625 0 C 13.539062 -0.0625 11.972656 -0.09375 9.953125 -0.09375 C 7.816406 -0.09375 6.238281 -0.0625 5.21875 0 L 5.21875 -0.640625 C 6.175781 -0.679688 6.867188 -0.773438 7.296875 -0.921875 C 7.722656 -1.078125 8.019531 -1.359375 8.1875 -1.765625 C 8.363281 -2.171875 8.453125 -2.820312 8.453125 -3.71875 L 8.453125 -21.921875 L 6.71875 -21.921875 C 5.394531 -21.921875 4.410156 -21.734375 3.765625 -21.359375 C 3.128906 -20.984375 2.679688 -20.394531 2.421875 -19.59375 C 2.171875 -18.800781 1.960938 -17.582031 1.796875 -15.9375 L 1.0625 -15.9375 C 1.125 -16.613281 1.15625 -17.488281 1.15625 -18.5625 C 1.15625 -19.78125 1.078125 -21.144531 0.921875 -22.65625 C 2.691406 -22.59375 5.703125 -22.5625 9.953125 -22.5625 C 14.171875 -22.5625 17.164062 -22.59375 18.9375 -22.65625 Z M 18.9375 -22.65625 "/></g></g></g><g fill="#ffffff" fill-opacity="1"><g transform="translate(192.661681, 192.917786)"><g/></g></g><g fill="#ffffff" fill-opacity="1"><g transform="translate(200.627718, 192.917786)"><g><path d="M 18.140625 -2.6875 C 18.648438 -1.363281 19.390625 -0.679688 20.359375 -0.640625 L 20.359375 0 C 19.503906 -0.0625 18.359375 -0.09375 16.921875 -0.09375 C 15.085938 -0.09375 13.722656 -0.0625 12.828125 0 L 12.828125 -0.640625 C 13.640625 -0.679688 14.222656 -0.78125 14.578125 -0.9375 C 14.929688 -1.101562 15.109375 -1.398438 15.109375 -1.828125 C 15.109375 -2.191406 14.976562 -2.691406 14.71875 -3.328125 L 12.765625 -8.578125 L 5.03125 -8.578125 L 3.71875 -5.1875 C 3.289062 -4.03125 3.078125 -3.15625 3.078125 -2.5625 C 3.078125 -1.894531 3.304688 -1.410156 3.765625 -1.109375 C 4.222656 -0.816406 4.921875 -0.660156 5.859375 -0.640625 L 5.859375 0 C 4.640625 -0.0625 3.410156 -0.09375 2.171875 -0.09375 C 1.210938 -0.09375 0.414062 -0.0625 -0.21875 0 L -0.21875 -0.640625 C 0.84375 -0.898438 1.679688 -1.828125 2.296875 -3.421875 L 9.828125 -22.8125 L 10.34375 -22.8125 Z M 12.515625 -9.21875 L 8.921875 -18.78125 L 5.28125 -9.21875 Z M 12.515625 -9.21875 "/></g></g></g><g fill="#ffffff" fill-opacity="1"><g transform="translate(220.782765, 192.917786)"><g><path d="M 11.875 -23.109375 C 13.15625 -23.109375 14.242188 -22.925781 15.140625 -22.5625 C 16.035156 -22.195312 16.910156 -21.6875 17.765625 -21.03125 C 17.992188 -20.832031 18.195312 -20.734375 18.375 -20.734375 C 18.800781 -20.734375 19.078125 -21.375 19.203125 -22.65625 L 19.9375 -22.65625 C 19.851562 -21.269531 19.8125 -18.816406 19.8125 -15.296875 L 19.078125 -15.296875 C 18.835938 -16.679688 18.617188 -17.675781 18.421875 -18.28125 C 18.234375 -18.894531 17.914062 -19.476562 17.46875 -20.03125 C 16.832031 -20.863281 16.015625 -21.488281 15.015625 -21.90625 C 14.023438 -22.320312 12.957031 -22.53125 11.8125 -22.53125 C 10.425781 -22.53125 9.210938 -22.070312 8.171875 -21.15625 C 7.140625 -20.238281 6.332031 -18.929688 5.75 -17.234375 C 5.175781 -15.535156 4.890625 -13.546875 4.890625 -11.265625 C 4.890625 -8.941406 5.195312 -6.945312 5.8125 -5.28125 C 6.4375 -3.613281 7.296875 -2.347656 8.390625 -1.484375 C 9.492188 -0.617188 10.738281 -0.1875 12.125 -0.1875 C 13.195312 -0.1875 14.234375 -0.390625 15.234375 -0.796875 C 16.234375 -1.203125 17.019531 -1.8125 17.59375 -2.625 C 18.019531 -3.21875 18.328125 -3.851562 18.515625 -4.53125 C 18.710938 -5.21875 18.898438 -6.269531 19.078125 -7.6875 L 19.8125 -7.6875 C 19.8125 -4.007812 19.851562 -1.445312 19.9375 0 L 19.203125 0 C 19.140625 -0.6875 19.046875 -1.171875 18.921875 -1.453125 C 18.804688 -1.742188 18.644531 -1.890625 18.4375 -1.890625 C 18.257812 -1.890625 18.035156 -1.800781 17.765625 -1.625 C 16.796875 -0.945312 15.875 -0.429688 15 -0.078125 C 14.132812 0.273438 13.082031 0.453125 11.84375 0.453125 C 9.8125 0.453125 8.03125 -0.00390625 6.5 -0.921875 C 4.976562 -1.835938 3.796875 -3.164062 2.953125 -4.90625 C 2.117188 -6.644531 1.703125 -8.722656 1.703125 -11.140625 C 1.703125 -13.484375 2.128906 -15.5625 2.984375 -17.375 C 3.847656 -19.1875 5.050781 -20.59375 6.59375 -21.59375 C 8.144531 -22.601562 9.90625 -23.109375 11.875 -23.109375 Z M 11.875 -23.109375 "/></g></g></g><g fill="#ffffff" fill-opacity="1"><g transform="translate(242.793357, 192.917786)"><g><path d="M 21.125 -1.59375 C 20.632812 -0.875 20.140625 -0.351562 19.640625 -0.03125 C 19.148438 0.289062 18.503906 0.453125 17.703125 0.453125 C 16.828125 0.453125 16.101562 0.195312 15.53125 -0.3125 C 14.96875 -0.832031 14.546875 -1.734375 14.265625 -3.015625 L 13.5625 -6.203125 C 13.3125 -7.316406 13.070312 -8.171875 12.84375 -8.765625 C 12.625 -9.359375 12.289062 -9.835938 11.84375 -10.203125 C 11.394531 -10.566406 10.765625 -10.75 9.953125 -10.75 L 6.90625 -10.75 L 6.90625 -3.390625 C 6.90625 -2.578125 6.96875 -1.988281 7.09375 -1.625 C 7.226562 -1.269531 7.472656 -1.023438 7.828125 -0.890625 C 8.179688 -0.765625 8.738281 -0.679688 9.5 -0.640625 L 9.5 0 C 8.519531 -0.0625 7.164062 -0.09375 5.4375 -0.09375 C 3.601562 -0.09375 2.238281 -0.0625 1.34375 0 L 1.34375 -0.640625 C 2.113281 -0.679688 2.671875 -0.765625 3.015625 -0.890625 C 3.367188 -1.023438 3.609375 -1.269531 3.734375 -1.625 C 3.867188 -1.988281 3.9375 -2.578125 3.9375 -3.390625 L 3.9375 -19.265625 C 3.9375 -20.078125 3.867188 -20.660156 3.734375 -21.015625 C 3.609375 -21.378906 3.367188 -21.625 3.015625 -21.75 C 2.671875 -21.882812 2.113281 -21.972656 1.34375 -22.015625 L 1.34375 -22.65625 C 2.238281 -22.59375 3.539062 -22.5625 5.25 -22.5625 L 8.703125 -22.59375 C 9.109375 -22.613281 9.566406 -22.625 10.078125 -22.625 C 12.554688 -22.625 14.460938 -22.101562 15.796875 -21.0625 C 17.128906 -20.03125 17.796875 -18.695312 17.796875 -17.0625 C 17.796875 -16.226562 17.597656 -15.390625 17.203125 -14.546875 C 16.804688 -13.703125 16.144531 -12.941406 15.21875 -12.265625 C 14.289062 -11.597656 13.078125 -11.144531 11.578125 -10.90625 L 11.96875 -10.84375 C 13.375 -10.613281 14.394531 -10.1875 15.03125 -9.5625 C 15.675781 -8.945312 16.148438 -7.96875 16.453125 -6.625 L 17.25 -3.359375 C 17.457031 -2.378906 17.675781 -1.695312 17.90625 -1.3125 C 18.144531 -0.925781 18.46875 -0.734375 18.875 -0.734375 C 19.238281 -0.734375 19.539062 -0.828125 19.78125 -1.015625 C 20.03125 -1.210938 20.316406 -1.523438 20.640625 -1.953125 Z M 9.28125 -22.015625 C 8.613281 -22.015625 8.113281 -21.9375 7.78125 -21.78125 C 7.457031 -21.632812 7.226562 -21.367188 7.09375 -20.984375 C 6.96875 -20.609375 6.90625 -20.035156 6.90625 -19.265625 L 6.90625 -11.390625 L 9.0625 -11.390625 C 11.164062 -11.390625 12.613281 -11.859375 13.40625 -12.796875 C 14.195312 -13.734375 14.59375 -15.035156 14.59375 -16.703125 C 14.59375 -18.453125 14.175781 -19.773438 13.34375 -20.671875 C 12.507812 -21.566406 11.15625 -22.015625 9.28125 -22.015625 Z M 9.28125 -22.015625 "/></g></g></g><g fill="#ffffff" fill-opacity="1"><g transform="translate(263.524259, 192.917786)"><g><path d="M 17.734375 -4.09375 C 17.734375 -2.875 17.804688 -1.507812 17.953125 0 C 16.503906 -0.0625 14.0625 -0.09375 10.625 -0.09375 C 6.53125 -0.09375 3.4375 -0.0625 1.34375 0 L 1.34375 -0.640625 C 2.113281 -0.679688 2.671875 -0.765625 3.015625 -0.890625 C 3.367188 -1.023438 3.609375 -1.269531 3.734375 -1.625 C 3.867188 -1.988281 3.9375 -2.578125 3.9375 -3.390625 L 3.9375 -19.265625 C 3.9375 -20.078125 3.867188 -20.660156 3.734375 -21.015625 C 3.609375 -21.378906 3.367188 -21.625 3.015625 -21.75 C 2.671875 -21.882812 2.113281 -21.972656 1.34375 -22.015625 L 1.34375 -22.65625 C 3.4375 -22.59375 6.53125 -22.5625 10.625 -22.5625 C 13.757812 -22.5625 15.988281 -22.59375 17.3125 -22.65625 C 17.164062 -21.25 17.09375 -19.988281 17.09375 -18.875 C 17.09375 -18.039062 17.125 -17.378906 17.1875 -16.890625 L 16.453125 -16.890625 C 16.296875 -18.273438 16.097656 -19.300781 15.859375 -19.96875 C 15.628906 -20.644531 15.238281 -21.140625 14.6875 -21.453125 C 14.132812 -21.765625 13.289062 -21.921875 12.15625 -21.921875 L 9.5 -21.921875 C 8.738281 -21.921875 8.179688 -21.859375 7.828125 -21.734375 C 7.472656 -21.617188 7.226562 -21.378906 7.09375 -21.015625 C 6.96875 -20.660156 6.90625 -20.078125 6.90625 -19.265625 L 6.90625 -11.71875 L 9.03125 -11.71875 C 9.769531 -11.71875 10.34375 -11.890625 10.75 -12.234375 C 11.15625 -12.585938 11.425781 -13.003906 11.5625 -13.484375 C 11.707031 -13.960938 11.820312 -14.566406 11.90625 -15.296875 L 12 -15.9375 L 12.734375 -15.9375 C 12.671875 -15.039062 12.640625 -14.035156 12.640625 -12.921875 L 12.640625 -11.390625 C 12.640625 -10.304688 12.703125 -8.789062 12.828125 -6.84375 L 12.09375 -6.84375 C 12.070312 -7 12.007812 -7.519531 11.90625 -8.40625 C 11.800781 -9.289062 11.503906 -9.957031 11.015625 -10.40625 C 10.535156 -10.851562 9.875 -11.078125 9.03125 -11.078125 L 6.90625 -11.078125 L 6.90625 -3.390625 C 6.90625 -2.578125 6.96875 -1.988281 7.09375 -1.625 C 7.226562 -1.269531 7.472656 -1.03125 7.828125 -0.90625 C 8.179688 -0.789062 8.738281 -0.734375 9.5 -0.734375 L 11.84375 -0.734375 C 13.164062 -0.734375 14.171875 -0.910156 14.859375 -1.265625 C 15.554688 -1.617188 16.0625 -2.179688 16.375 -2.953125 C 16.695312 -3.734375 16.9375 -4.882812 17.09375 -6.40625 L 17.828125 -6.40625 C 17.765625 -5.820312 17.734375 -5.050781 17.734375 -4.09375 Z M 17.734375 -4.09375 "/></g></g></g><g fill="#ffffff" fill-opacity="1"><g transform="translate(283.007469, 192.917786)"><g><path d="M 8.1875 -23.015625 C 9.125 -23.015625 9.863281 -22.910156 10.40625 -22.703125 C 10.957031 -22.503906 11.519531 -22.210938 12.09375 -21.828125 C 12.5625 -21.523438 12.925781 -21.375 13.1875 -21.375 C 13.375 -21.375 13.519531 -21.484375 13.625 -21.703125 C 13.738281 -21.929688 13.828125 -22.289062 13.890625 -22.78125 L 14.625 -22.78125 C 14.519531 -21.539062 14.46875 -19.363281 14.46875 -16.25 L 13.734375 -16.25 C 13.597656 -17.976562 13.097656 -19.4375 12.234375 -20.625 C 11.367188 -21.8125 10.117188 -22.40625 8.484375 -22.40625 C 7.328125 -22.40625 6.382812 -22.054688 5.65625 -21.359375 C 4.9375 -20.660156 4.578125 -19.769531 4.578125 -18.6875 C 4.578125 -17.875 4.765625 -17.171875 5.140625 -16.578125 C 5.515625 -15.984375 5.988281 -15.472656 6.5625 -15.046875 C 7.132812 -14.617188 7.957031 -14.070312 9.03125 -13.40625 L 9.953125 -12.828125 C 11.296875 -11.992188 12.351562 -11.265625 13.125 -10.640625 C 13.90625 -10.015625 14.53125 -9.296875 15 -8.484375 C 15.476562 -7.671875 15.71875 -6.71875 15.71875 -5.625 C 15.71875 -3.6875 15.078125 -2.1875 13.796875 -1.125 C 12.515625 -0.0703125 10.890625 0.453125 8.921875 0.453125 C 7.898438 0.453125 7.0625 0.34375 6.40625 0.125 C 5.757812 -0.0820312 5.140625 -0.367188 4.546875 -0.734375 C 4.078125 -1.035156 3.710938 -1.1875 3.453125 -1.1875 C 3.265625 -1.1875 3.113281 -1.070312 3 -0.84375 C 2.894531 -0.625 2.8125 -0.269531 2.75 0.21875 L 2.015625 0.21875 C 2.097656 -0.945312 2.140625 -3.503906 2.140625 -7.453125 L 2.875 -7.453125 C 3.03125 -5.296875 3.566406 -3.546875 4.484375 -2.203125 C 5.398438 -0.859375 6.804688 -0.1875 8.703125 -0.1875 C 9.859375 -0.1875 10.835938 -0.546875 11.640625 -1.265625 C 12.453125 -1.984375 12.859375 -3.046875 12.859375 -4.453125 C 12.859375 -5.640625 12.457031 -6.648438 11.65625 -7.484375 C 10.863281 -8.316406 9.601562 -9.253906 7.875 -10.296875 C 6.613281 -11.066406 5.59375 -11.75 4.8125 -12.34375 C 4.03125 -12.945312 3.394531 -13.671875 2.90625 -14.515625 C 2.414062 -15.359375 2.171875 -16.34375 2.171875 -17.46875 C 2.171875 -19.257812 2.742188 -20.628906 3.890625 -21.578125 C 5.046875 -22.535156 6.476562 -23.015625 8.1875 -23.015625 Z M 8.1875 -23.015625 "/></g></g></g><g fill="#ffffff" fill-opacity="1"><g transform="translate(100.140093, 210.924992)"><g><path d="M 4.53125 -1.359375 C 4.851562 -1.359375 5.125 -1.394531 5.34375 -1.46875 C 5.5625 -1.550781 5.738281 -1.65625 5.875 -1.78125 C 6.007812 -1.914062 6.101562 -2.066406 6.15625 -2.234375 C 6.21875 -2.410156 6.25 -2.59375 6.25 -2.78125 C 6.25 -2.988281 6.210938 -3.171875 6.140625 -3.328125 C 6.078125 -3.492188 5.976562 -3.632812 5.84375 -3.75 C 5.707031 -3.863281 5.53125 -3.945312 5.3125 -4 C 5.09375 -4.0625 4.832031 -4.09375 4.53125 -4.09375 L 2.78125 -4.09375 L 2.78125 -1.359375 Z M 2.78125 -8 L 2.78125 -5.296875 L 4.15625 -5.296875 C 4.75 -5.296875 5.195312 -5.398438 5.5 -5.609375 C 5.8125 -5.828125 5.96875 -6.171875 5.96875 -6.640625 C 5.96875 -7.128906 5.828125 -7.476562 5.546875 -7.6875 C 5.273438 -7.894531 4.84375 -8 4.25 -8 Z M 4.25 -9.34375 C 4.863281 -9.34375 5.390625 -9.285156 5.828125 -9.171875 C 6.265625 -9.054688 6.617188 -8.890625 6.890625 -8.671875 C 7.171875 -8.453125 7.375 -8.191406 7.5 -7.890625 C 7.632812 -7.585938 7.703125 -7.242188 7.703125 -6.859375 C 7.703125 -6.640625 7.664062 -6.425781 7.59375 -6.21875 C 7.53125 -6.019531 7.429688 -5.832031 7.296875 -5.65625 C 7.160156 -5.488281 6.988281 -5.332031 6.78125 -5.1875 C 6.570312 -5.039062 6.328125 -4.921875 6.046875 -4.828125 C 7.328125 -4.535156 7.96875 -3.84375 7.96875 -2.75 C 7.96875 -2.351562 7.890625 -1.984375 7.734375 -1.640625 C 7.585938 -1.304688 7.367188 -1.015625 7.078125 -0.765625 C 6.785156 -0.523438 6.425781 -0.335938 6 -0.203125 C 5.582031 -0.0664062 5.101562 0 4.5625 0 L 1.046875 0 L 1.046875 -9.34375 Z M 4.25 -9.34375 "/></g></g></g><g fill="#ffffff" fill-opacity="1"><g transform="translate(111.229503, 210.924992)"><g><path d="M 9.953125 -4.671875 C 9.953125 -3.984375 9.835938 -3.347656 9.609375 -2.765625 C 9.378906 -2.179688 9.054688 -1.675781 8.640625 -1.25 C 8.234375 -0.820312 7.738281 -0.488281 7.15625 -0.25 C 6.570312 -0.0078125 5.925781 0.109375 5.21875 0.109375 C 4.507812 0.109375 3.863281 -0.0078125 3.28125 -0.25 C 2.707031 -0.488281 2.210938 -0.820312 1.796875 -1.25 C 1.378906 -1.675781 1.054688 -2.179688 0.828125 -2.765625 C 0.597656 -3.347656 0.484375 -3.984375 0.484375 -4.671875 C 0.484375 -5.359375 0.597656 -5.992188 0.828125 -6.578125 C 1.054688 -7.160156 1.378906 -7.664062 1.796875 -8.09375 C 2.210938 -8.519531 2.707031 -8.851562 3.28125 -9.09375 C 3.863281 -9.332031 4.507812 -9.453125 5.21875 -9.453125 C 5.695312 -9.453125 6.144531 -9.394531 6.5625 -9.28125 C 6.976562 -9.164062 7.359375 -9.007812 7.703125 -8.8125 C 8.054688 -8.613281 8.367188 -8.367188 8.640625 -8.078125 C 8.921875 -7.796875 9.15625 -7.476562 9.34375 -7.125 C 9.539062 -6.769531 9.691406 -6.382812 9.796875 -5.96875 C 9.898438 -5.5625 9.953125 -5.128906 9.953125 -4.671875 Z M 8.171875 -4.671875 C 8.171875 -5.179688 8.101562 -5.640625 7.96875 -6.046875 C 7.832031 -6.453125 7.632812 -6.796875 7.375 -7.078125 C 7.125 -7.367188 6.816406 -7.585938 6.453125 -7.734375 C 6.085938 -7.890625 5.675781 -7.96875 5.21875 -7.96875 C 4.757812 -7.96875 4.347656 -7.890625 3.984375 -7.734375 C 3.617188 -7.585938 3.304688 -7.367188 3.046875 -7.078125 C 2.796875 -6.796875 2.601562 -6.453125 2.46875 -6.046875 C 2.332031 -5.640625 2.265625 -5.179688 2.265625 -4.671875 C 2.265625 -4.160156 2.332031 -3.703125 2.46875 -3.296875 C 2.601562 -2.890625 2.796875 -2.539062 3.046875 -2.25 C 3.304688 -1.96875 3.617188 -1.75 3.984375 -1.59375 C 4.347656 -1.445312 4.757812 -1.375 5.21875 -1.375 C 5.675781 -1.375 6.085938 -1.445312 6.453125 -1.59375 C 6.816406 -1.75 7.125 -1.96875 7.375 -2.25 C 7.632812 -2.539062 7.832031 -2.890625 7.96875 -3.296875 C 8.101562 -3.703125 8.171875 -4.160156 8.171875 -4.671875 Z M 8.171875 -4.671875 "/></g></g></g><g fill="#ffffff" fill-opacity="1"><g transform="translate(124.249551, 210.924992)"><g><path d="M 5.96875 -3.53125 L 4.84375 -6.640625 C 4.78125 -6.773438 4.71875 -6.9375 4.65625 -7.125 C 4.601562 -7.3125 4.546875 -7.515625 4.484375 -7.734375 C 4.429688 -7.515625 4.375 -7.304688 4.3125 -7.109375 C 4.25 -6.921875 4.191406 -6.757812 4.140625 -6.625 L 3 -3.53125 Z M 9.046875 0 L 7.703125 0 C 7.546875 0 7.421875 -0.0351562 7.328125 -0.109375 C 7.234375 -0.179688 7.164062 -0.273438 7.125 -0.390625 L 6.421875 -2.296875 L 2.546875 -2.296875 L 1.859375 -0.390625 C 1.816406 -0.296875 1.742188 -0.207031 1.640625 -0.125 C 1.546875 -0.0390625 1.425781 0 1.28125 0 L -0.078125 0 L 3.609375 -9.34375 L 5.375 -9.34375 Z M 9.046875 0 "/></g></g></g><g fill="#ffffff" fill-opacity="1"><g transform="translate(135.803865, 210.924992)"><g><path d="M 3.859375 -4.890625 C 4.191406 -4.890625 4.476562 -4.929688 4.71875 -5.015625 C 4.957031 -5.097656 5.15625 -5.210938 5.3125 -5.359375 C 5.476562 -5.503906 5.597656 -5.675781 5.671875 -5.875 C 5.742188 -6.070312 5.78125 -6.289062 5.78125 -6.53125 C 5.78125 -7 5.625 -7.359375 5.3125 -7.609375 C 5.007812 -7.867188 4.535156 -8 3.890625 -8 L 2.78125 -8 L 2.78125 -4.890625 Z M 8.328125 0 L 6.765625 0 C 6.460938 0 6.25 -0.113281 6.125 -0.34375 L 4.15625 -3.34375 C 4.082031 -3.457031 4 -3.535156 3.90625 -3.578125 C 3.820312 -3.628906 3.691406 -3.65625 3.515625 -3.65625 L 2.78125 -3.65625 L 2.78125 0 L 1.046875 0 L 1.046875 -9.34375 L 3.890625 -9.34375 C 4.523438 -9.34375 5.066406 -9.273438 5.515625 -9.140625 C 5.972656 -9.015625 6.347656 -8.832031 6.640625 -8.59375 C 6.929688 -8.351562 7.144531 -8.066406 7.28125 -7.734375 C 7.414062 -7.410156 7.484375 -7.050781 7.484375 -6.65625 C 7.484375 -6.34375 7.4375 -6.046875 7.34375 -5.765625 C 7.25 -5.484375 7.113281 -5.226562 6.9375 -5 C 6.769531 -4.769531 6.554688 -4.566406 6.296875 -4.390625 C 6.046875 -4.222656 5.753906 -4.09375 5.421875 -4 C 5.535156 -3.925781 5.640625 -3.84375 5.734375 -3.75 C 5.828125 -3.664062 5.914062 -3.566406 6 -3.453125 Z M 8.328125 0 "/></g></g></g><g fill="#ffffff" fill-opacity="1"><g transform="translate(146.693107, 210.924992)"><g><path d="M 9.34375 -4.671875 C 9.34375 -3.984375 9.226562 -3.351562 9 -2.78125 C 8.769531 -2.207031 8.445312 -1.710938 8.03125 -1.296875 C 7.613281 -0.890625 7.113281 -0.570312 6.53125 -0.34375 C 5.957031 -0.113281 5.3125 0 4.59375 0 L 1.046875 0 L 1.046875 -9.34375 L 4.59375 -9.34375 C 5.3125 -9.34375 5.957031 -9.226562 6.53125 -9 C 7.113281 -8.769531 7.613281 -8.445312 8.03125 -8.03125 C 8.445312 -7.625 8.769531 -7.132812 9 -6.5625 C 9.226562 -5.988281 9.34375 -5.359375 9.34375 -4.671875 Z M 7.546875 -4.671875 C 7.546875 -5.179688 7.476562 -5.640625 7.34375 -6.046875 C 7.207031 -6.453125 7.007812 -6.796875 6.75 -7.078125 C 6.5 -7.359375 6.191406 -7.570312 5.828125 -7.71875 C 5.460938 -7.875 5.050781 -7.953125 4.59375 -7.953125 L 2.78125 -7.953125 L 2.78125 -1.375 L 4.59375 -1.375 C 5.050781 -1.375 5.460938 -1.445312 5.828125 -1.59375 C 6.191406 -1.75 6.5 -1.96875 6.75 -2.25 C 7.007812 -2.539062 7.207031 -2.890625 7.34375 -3.296875 C 7.476562 -3.703125 7.546875 -4.160156 7.546875 -4.671875 Z M 7.546875 -4.671875 "/></g></g></g><g fill="#ffffff" fill-opacity="1"><g transform="translate(159.09974, 210.924992)"><g><path d="M 2.78125 0 L 1.046875 0 L 1.046875 -9.34375 L 2.78125 -9.34375 Z M 2.78125 0 "/></g></g></g><g fill="#ffffff" fill-opacity="1"><g transform="translate(165.514308, 210.924992)"><g><path d="M 8.921875 -9.34375 L 8.921875 0 L 8.03125 0 C 7.882812 0 7.765625 -0.0195312 7.671875 -0.0625 C 7.585938 -0.113281 7.5 -0.191406 7.40625 -0.296875 L 2.53125 -6.53125 C 2.5625 -6.238281 2.578125 -5.972656 2.578125 -5.734375 L 2.578125 0 L 1.046875 0 L 1.046875 -9.34375 L 1.953125 -9.34375 C 2.023438 -9.34375 2.085938 -9.335938 2.140625 -9.328125 C 2.191406 -9.328125 2.238281 -9.316406 2.28125 -9.296875 C 2.320312 -9.273438 2.363281 -9.242188 2.40625 -9.203125 C 2.445312 -9.171875 2.488281 -9.125 2.53125 -9.0625 L 7.4375 -2.8125 C 7.414062 -2.957031 7.398438 -3.101562 7.390625 -3.25 C 7.390625 -3.394531 7.390625 -3.53125 7.390625 -3.65625 L 7.390625 -9.34375 Z M 8.921875 -9.34375 "/></g></g></g><g fill="#ffffff" fill-opacity="1"><g transform="translate(178.050079, 210.924992)"><g><path d="M 8.734375 -4.6875 L 8.734375 -0.90625 C 8.265625 -0.550781 7.757812 -0.289062 7.21875 -0.125 C 6.6875 0.03125 6.113281 0.109375 5.5 0.109375 C 4.738281 0.109375 4.046875 -0.0078125 3.421875 -0.25 C 2.804688 -0.488281 2.28125 -0.816406 1.84375 -1.234375 C 1.40625 -1.660156 1.066406 -2.164062 0.828125 -2.75 C 0.597656 -3.332031 0.484375 -3.972656 0.484375 -4.671875 C 0.484375 -5.367188 0.597656 -6.007812 0.828125 -6.59375 C 1.054688 -7.1875 1.378906 -7.691406 1.796875 -8.109375 C 2.210938 -8.535156 2.71875 -8.863281 3.3125 -9.09375 C 3.914062 -9.332031 4.59375 -9.453125 5.34375 -9.453125 C 5.71875 -9.453125 6.070312 -9.421875 6.40625 -9.359375 C 6.738281 -9.296875 7.046875 -9.210938 7.328125 -9.109375 C 7.609375 -9.003906 7.863281 -8.875 8.09375 -8.71875 C 8.320312 -8.570312 8.535156 -8.40625 8.734375 -8.21875 L 8.234375 -7.4375 C 8.160156 -7.3125 8.0625 -7.234375 7.9375 -7.203125 C 7.8125 -7.179688 7.675781 -7.210938 7.53125 -7.296875 C 7.382812 -7.378906 7.238281 -7.460938 7.09375 -7.546875 C 6.957031 -7.628906 6.800781 -7.695312 6.625 -7.75 C 6.445312 -7.8125 6.25 -7.863281 6.03125 -7.90625 C 5.820312 -7.945312 5.570312 -7.96875 5.28125 -7.96875 C 4.820312 -7.96875 4.40625 -7.890625 4.03125 -7.734375 C 3.65625 -7.578125 3.335938 -7.351562 3.078125 -7.0625 C 2.816406 -6.78125 2.613281 -6.4375 2.46875 -6.03125 C 2.332031 -5.625 2.265625 -5.171875 2.265625 -4.671875 C 2.265625 -4.140625 2.335938 -3.660156 2.484375 -3.234375 C 2.640625 -2.816406 2.851562 -2.460938 3.125 -2.171875 C 3.40625 -1.878906 3.742188 -1.65625 4.140625 -1.5 C 4.535156 -1.351562 4.972656 -1.28125 5.453125 -1.28125 C 5.796875 -1.28125 6.101562 -1.316406 6.375 -1.390625 C 6.644531 -1.460938 6.910156 -1.5625 7.171875 -1.6875 L 7.171875 -3.375 L 6 -3.375 C 5.882812 -3.375 5.796875 -3.40625 5.734375 -3.46875 C 5.671875 -3.53125 5.640625 -3.609375 5.640625 -3.703125 L 5.640625 -4.6875 Z M 8.734375 -4.6875 "/></g></g></g><g fill="#ffffff" fill-opacity="1"><g transform="translate(190.011181, 210.924992)"><g/></g></g><g fill="#ffffff" fill-opacity="1"><g transform="translate(195.734845, 210.924992)"><g/></g></g><g fill="#ffffff" fill-opacity="1"><g transform="translate(201.448684, 210.924992)"><g><path d="M 2.78125 -7.953125 L 2.78125 -5.1875 L 6.28125 -5.1875 L 6.28125 -3.8125 L 2.78125 -3.8125 L 2.78125 0 L 1.046875 0 L 1.046875 -9.34375 L 6.9375 -9.34375 L 6.9375 -7.953125 Z M 2.78125 -7.953125 "/></g></g></g><g fill="#ffffff" fill-opacity="1"><g transform="translate(211.343559, 210.924992)"><g><path d="M 5.96875 -3.53125 L 4.84375 -6.640625 C 4.78125 -6.773438 4.71875 -6.9375 4.65625 -7.125 C 4.601562 -7.3125 4.546875 -7.515625 4.484375 -7.734375 C 4.429688 -7.515625 4.375 -7.304688 4.3125 -7.109375 C 4.25 -6.921875 4.191406 -6.757812 4.140625 -6.625 L 3 -3.53125 Z M 9.046875 0 L 7.703125 0 C 7.546875 0 7.421875 -0.0351562 7.328125 -0.109375 C 7.234375 -0.179688 7.164062 -0.273438 7.125 -0.390625 L 6.421875 -2.296875 L 2.546875 -2.296875 L 1.859375 -0.390625 C 1.816406 -0.296875 1.742188 -0.207031 1.640625 -0.125 C 1.546875 -0.0390625 1.425781 0 1.28125 0 L -0.078125 0 L 3.609375 -9.34375 L 5.375 -9.34375 Z M 9.046875 0 "/></g></g></g><g fill="#ffffff" fill-opacity="1"><g transform="translate(222.897873, 210.924992)"><g><path d="M 7.453125 -2.203125 C 7.546875 -2.203125 7.628906 -2.164062 7.703125 -2.09375 L 8.390625 -1.34375 C 8.015625 -0.875 7.546875 -0.515625 6.984375 -0.265625 C 6.429688 -0.015625 5.769531 0.109375 5 0.109375 C 4.300781 0.109375 3.675781 -0.0078125 3.125 -0.25 C 2.570312 -0.488281 2.097656 -0.816406 1.703125 -1.234375 C 1.316406 -1.660156 1.019531 -2.164062 0.8125 -2.75 C 0.601562 -3.332031 0.5 -3.972656 0.5 -4.671875 C 0.5 -5.367188 0.609375 -6.007812 0.828125 -6.59375 C 1.054688 -7.175781 1.375 -7.675781 1.78125 -8.09375 C 2.1875 -8.519531 2.671875 -8.851562 3.234375 -9.09375 C 3.796875 -9.332031 4.421875 -9.453125 5.109375 -9.453125 C 5.785156 -9.453125 6.390625 -9.335938 6.921875 -9.109375 C 7.453125 -8.890625 7.898438 -8.597656 8.265625 -8.234375 L 7.6875 -7.421875 C 7.65625 -7.367188 7.609375 -7.320312 7.546875 -7.28125 C 7.492188 -7.25 7.421875 -7.234375 7.328125 -7.234375 C 7.265625 -7.234375 7.195312 -7.25 7.125 -7.28125 C 7.0625 -7.320312 6.988281 -7.367188 6.90625 -7.421875 C 6.820312 -7.472656 6.722656 -7.53125 6.609375 -7.59375 C 6.503906 -7.65625 6.378906 -7.710938 6.234375 -7.765625 C 6.097656 -7.828125 5.9375 -7.875 5.75 -7.90625 C 5.5625 -7.945312 5.347656 -7.96875 5.109375 -7.96875 C 4.691406 -7.96875 4.304688 -7.890625 3.953125 -7.734375 C 3.609375 -7.585938 3.3125 -7.375 3.0625 -7.09375 C 2.8125 -6.8125 2.617188 -6.46875 2.484375 -6.0625 C 2.347656 -5.65625 2.28125 -5.191406 2.28125 -4.671875 C 2.28125 -4.148438 2.351562 -3.679688 2.5 -3.265625 C 2.644531 -2.859375 2.84375 -2.515625 3.09375 -2.234375 C 3.351562 -1.953125 3.65625 -1.738281 4 -1.59375 C 4.34375 -1.445312 4.710938 -1.375 5.109375 -1.375 C 5.347656 -1.375 5.5625 -1.382812 5.75 -1.40625 C 5.945312 -1.4375 6.125 -1.476562 6.28125 -1.53125 C 6.445312 -1.582031 6.597656 -1.648438 6.734375 -1.734375 C 6.878906 -1.828125 7.023438 -1.941406 7.171875 -2.078125 C 7.210938 -2.109375 7.253906 -2.132812 7.296875 -2.15625 C 7.347656 -2.1875 7.398438 -2.203125 7.453125 -2.203125 Z M 7.453125 -2.203125 "/></g></g></g><g fill="#ffffff" fill-opacity="1"><g transform="translate(234.02602, 210.924992)"><g><path d="M 2.78125 0 L 1.046875 0 L 1.046875 -9.34375 L 2.78125 -9.34375 Z M 2.78125 0 "/></g></g></g><g fill="#ffffff" fill-opacity="1"><g transform="translate(240.440588, 210.924992)"><g><path d="M 6.515625 -1.4375 L 6.515625 0 L 1.046875 0 L 1.046875 -9.34375 L 2.78125 -9.34375 L 2.78125 -1.4375 Z M 6.515625 -1.4375 "/></g></g></g><g fill="#ffffff" fill-opacity="1"><g transform="translate(249.734955, 210.924992)"><g><path d="M 2.78125 0 L 1.046875 0 L 1.046875 -9.34375 L 2.78125 -9.34375 Z M 2.78125 0 "/></g></g></g><g fill="#ffffff" fill-opacity="1"><g transform="translate(256.149523, 210.924992)"><g><path d="M 7.5625 -7.921875 L 4.75 -7.921875 L 4.75 0 L 3.015625 0 L 3.015625 -7.921875 L 0.1875 -7.921875 L 0.1875 -9.34375 L 7.5625 -9.34375 Z M 7.5625 -7.921875 "/></g></g></g><g fill="#ffffff" fill-opacity="1"><g transform="translate(266.483474, 210.924992)"><g><path d="M 5.046875 -3.625 L 5.046875 0 L 3.328125 0 L 3.328125 -3.625 L -0.078125 -9.34375 L 1.453125 -9.34375 C 1.597656 -9.34375 1.710938 -9.304688 1.796875 -9.234375 C 1.890625 -9.160156 1.96875 -9.066406 2.03125 -8.953125 L 3.734375 -5.828125 C 3.835938 -5.648438 3.925781 -5.476562 4 -5.3125 C 4.070312 -5.144531 4.140625 -4.976562 4.203125 -4.8125 C 4.253906 -4.976562 4.316406 -5.144531 4.390625 -5.3125 C 4.460938 -5.476562 4.546875 -5.648438 4.640625 -5.828125 L 6.34375 -8.953125 C 6.394531 -9.046875 6.46875 -9.132812 6.5625 -9.21875 C 6.65625 -9.300781 6.773438 -9.34375 6.921875 -9.34375 L 8.453125 -9.34375 Z M 5.046875 -3.625 "/></g></g></g></svg>